# xmcd
#
# Track frame offsets: 
#        150
#        10710
#        23250
#        34101
#        48190
#        57721
#        69423
#        79172
#        89230
#        101998
#        113156
#        122538
#        131556
#
# Disc length: 1918 seconds
#
# Revision: 0
# Processed by: cddbd v1.5.2PL0 Copyright (c) Steve Scherf et al.
# Submitted via: ExactAudioCopy v0.95b3
#
DISCID=a8077c0d
DTITLE=The Beatles  - 1962-1966 CD 1 (US Stereo Ebbetts)
DYEAR=1900
DGENRE=
TTITLE0=Love Me Do
TTITLE1=Eight Days a Week
TTITLE2=I Feel Fine
TTITLE3=Ticket to Ride
TTITLE4=Yesterday
TTITLE5=Help!
TTITLE6=You've Got to Hide Your Love Away
TTITLE7=We Can Work it Out
TTITLE8=Day Tripper
TTITLE9=Drive My Car
TTITLE10=Norwegian Wood
TTITLE11=Please Please Me
TTITLE12=Nowhere Man
EXTD=
EXTT0=
EXTT1=
EXTT2=
EXTT3=
EXTT4=
EXTT5=
EXTT6=
EXTT7=
EXTT8=
EXTT9=
EXTT10=
EXTT11=
EXTT12=
PLAYORDER=
